<?xml version="1.0" encoding="utf-8"?>
<!-- Generator: Adobe Illustrator 26.0.3, SVG Export Plug-In . SVG Version: 6.00 Build 0)  -->
<svg version="1.1" id="Lag_1" xmlns="http://www.w3.org/2000/svg" xmlns:xlink="http://www.w3.org/1999/xlink" x="0px" y="0px"
	 viewBox="0 0 35 30" style="enable-background:new 0 0 35 30;" xml:space="preserve">
<style type="text/css">
	.st0{fill:#FFFFFF;}
	.st1{fill:#020203;}
	.st2{fill-rule:evenodd;clip-rule:evenodd;fill:#020203;}
</style>
<g id="layer1" transform="translate(3.7859e-7 -722.07)">
	<g id="g1563" transform="matrix(.23944 0 0 .23944 94.337 797.27)">
		<path id="path1565" class="st0" d="M-373.8-301.8l4.5,4.5l2-2l4,4l2-2l4,4l2-2l4.5,4.5l2.5-2.5l2,2l2-2l4,4l-4.5,4.5l-2-2l-2,2
			l-5.9-5.9l-2,2l26.7,26.7l-4,4l-18.8-18.8l-2,2l8.4,8.4l-4.5,4.5l-8.4-8.4l-2,2l6.4,6.4l-4,4l-8.4-8.4l-2,2l6.4,6.4l-2.5,2.5
			l-2.5-2.5l-2,2l-14.4-14.4l2-2l-5.9-5.9l2.5-2.5l-4.5-4.5L-373.8-301.8z"/>
		<path id="path1567" class="st1" d="M-373.8-305.8l6.4,6.4l2-2l4,4l2-2l4,4l2.5-2.5l4.5,4.5l2-2l2,2l2-2l5.9,5.9l-6.4,6.4l-2-2
			l-2,2l18.8,18.8l-2,2l2,2l-4,4l-2-2l-2,2l-8.4-8.4l-4.5,4.5l-2-2l-5.9,5.9l-2-2l-4.5,4.5l-2-2l-2,2l-2.5-2.5l-2,2l-14.4-14.4l2-2
			l-5.9-5.9l2-2l-6.4-6.4L-373.8-305.8z M-390.2-285.5l4.5,4.5l-2.5,2.5l5.9,5.9l-2,2l14.4,14.4l2-2l2.5,2.5l2.5-2.5l-6.4-6.4l2-2
			l8.4,8.4l4-4l-6.4-6.4l2-2l8.4,8.4l4.5-4.5l-8.4-8.4l2-2l18.8,18.8l4-4L-357-289l2-2l5.9,5.9l2-2l2,2l4.5-4.5l-4-4l-2,2l-2-2
			l-2.5,2.5l-4.5-4.5l-2,2l-4-4l-2,2l-4-4l-2,2l-4.5-4.5L-390.2-285.5z"/>
	</g>
</g>
<path class="st0" d="M19.8,16.8v-0.4c0-0.3,0.3-0.6,0.6-0.6h6.7c0.3,0,0.6,0.3,0.6,0.6v0.4c0,0.3-0.3,0.6-0.6,0.6h-6.7
	C20.1,17.4,19.8,17.1,19.8,16.8z"/>
<path class="st0" d="M8.5,16.8v-0.4c0-0.3,0.3-0.6,0.6-0.6h6.7c0.3,0,0.6,0.3,0.6,0.6v0.4c0,0.3-0.3,0.6-0.6,0.6H9
	C8.7,17.4,8.5,17.1,8.5,16.8z"/>
<path class="st0" d="M17.9,7.3h0.4c0.3,0,0.6,0.3,0.6,0.6v6.7c0,0.3-0.3,0.6-0.6,0.6h-0.4c-0.3,0-0.6-0.3-0.6-0.6V7.8
	C17.4,7.5,17.6,7.3,17.9,7.3z"/>
<path class="st0" d="M17.9,18.1h0.4c0.3,0,0.6,0.3,0.6,0.6v6.7c0,0.3-0.3,0.6-0.6,0.6h-0.4c-0.3,0-0.6-0.3-0.6-0.6v-6.7
	C17.4,18.3,17.6,18.1,17.9,18.1z"/>
<g id="layer1_00000085208611953182784350000016852028982312618369_">
	<g id="g1325_00000132076911358889721760000007461696409568055451_">
		<path id="rect1430_00000103956915133332335340000013670049403262222518_" class="st2" d="M20.2,19l7.7,9.2l0.5-0.5l-0.5-0.5
			l0.5-0.5L28,26.2l-0.5,0.5l-5.9-7l0.5-0.5l-0.4-0.5l-0.5,0.5l-0.5-0.5L20.2,19L20.2,19z M22.2,19.1l0.5,0.5l0.5-0.5l-0.5-0.5
			C22.7,18.7,22.2,19.1,22.2,19.1z M23.2,19.2l0.5,0.5l0.5-0.5l-0.5-0.5L23.2,19.2z M24.2,19.3l0.5,0.5l0.5-0.5l-0.5-0.5L24.2,19.3z
			 M25.2,19.4l0.5,0.5l0.5-0.5L25.7,19L25.2,19.4z M26.1,19.5l0.5,0.5l0.5-0.5l-0.5-0.5L26.1,19.5z M27.1,19.6l0.5,0.5l0.5-0.5
			l-0.5-0.5L27.1,19.6z M28.1,19.7l0.5,0.5l0.5-0.5l-0.5-0.5L28.1,19.7z M29.1,19.8l0.5,0.5l0.5-0.5l-0.5-0.5L29.1,19.8z M30.1,19.9
			l0.5,0.5l-1.6,1.4l0.5,0.5l0.9,1.1l0.5-0.5l-0.9-1.1l2.2-1.8l-0.5-0.5L31.1,20l-0.5-0.5L30.1,19.9z M30.8,22.9l0.9,1.1l0.5-0.5
			l-0.9-1.1L30.8,22.9z M32.3,23.6l0.9,1.1l0.5-0.5l-0.9-1.1L32.3,23.6z M33.7,24.2l0.9,1.1l0.5-0.5l-0.9-1.1L33.7,24.2z M34.6,25.3
			l-1.1,0.9l0.5,0.5l1.1-0.9L34.6,25.3z M33.5,26.2l-0.9-1.1l-0.5,0.5l0.9,1.1L33.5,26.2z M32.1,25.5l-0.9-1.1l-0.5,0.5l0.9,1.1
			L32.1,25.5z M30.6,24.9l-0.9-1.1l-0.5,0.5l0.9,1.1L30.6,24.9z M29.2,24.3l-0.9-1.1l-0.5,0.5l0.5,0.5l-0.5,0.5l0.5,0.5l0.5-0.5
			L29.2,24.3z M28.1,25.2l-0.5,0.5l0.5,0.5l0.5-0.5L28.1,25.2z"/>
		<path id="rect3779_00000125592016772362297600000008116919452778223287_" class="st0" d="M21.6,19.6l5.9,7l0.5-0.5l-0.5-0.5
			l0.5-0.5l-0.5-0.5l0.5-0.5l-0.5-0.5l0.5-0.5l0.9,1.1l0.5-0.5l0.9,1.1l0.5-0.5l0.9,1.1l0.5-0.5l0.9,1.1l0.5-0.5l0.5-0.5l-0.9-1.1
			l-0.5,0.5l-0.9-1.1L31.7,24l-0.9-1.1l-0.5,0.5l-1.4-1.6l0.5-0.5l0.5-0.5l0.5-0.5l-0.5-0.5l-0.5,0.5l-0.5-0.5l-0.5,0.5l-0.5-0.5
			l-0.5,0.5l-0.5-0.5L26.6,20l-0.5-0.5L25.6,20l-0.5-0.5l-0.5,0.5l-0.5-0.5l-0.5,0.5l-0.5-0.5l-0.5,0.5l-0.5-0.5L21.6,19.6
			L21.6,19.6z"/>
	</g>
</g>
</svg>
